<svg id="visual" viewBox="0 0 900 600" width="900" height="600" xmlns="http://www.w3.org/2000/svg" xmlns:xlink="http://www.w3.org/1999/xlink" version="1.1"><rect x="0" y="0" width="900" height="600" fill="#f3f4ff"></rect><path d="M0 184L180 178L360 202L540 191L720 250L900 246L900 601L720 601L540 601L360 601L180 601L0 601Z" fill="#778798"></path><path d="M0 268L180 294L360 219L540 258L720 267L900 212L900 601L720 601L540 601L360 601L180 601L0 601Z" fill="#6c7d8f"></path><path d="M0 267L180 308L360 321L540 313L720 268L900 306L900 601L720 601L540 601L360 601L180 601L0 601Z" fill="#627387"></path><path d="M0 338L180 312L360 288L540 306L720 322L900 296L900 601L720 601L540 601L360 601L180 601L0 601Z" fill="#57697e"></path><path d="M0 368L180 362L360 327L540 313L720 375L900 344L900 601L720 601L540 601L360 601L180 601L0 601Z" fill="#4d5f76"></path><path d="M0 377L180 355L360 363L540 345L720 367L900 394L900 601L720 601L540 601L360 601L180 601L0 601Z" fill="#43566d"></path><path d="M0 393L180 381L360 389L540 383L720 378L900 392L900 601L720 601L540 601L360 601L180 601L0 601Z" fill="#394c65"></path><path d="M0 454L180 415L360 454L540 434L720 444L900 447L900 601L720 601L540 601L360 601L180 601L0 601Z" fill="#2f435d"></path><path d="M0 451L180 448L360 481L540 468L720 472L900 460L900 601L720 601L540 601L360 601L180 601L0 601Z" fill="#253a55"></path><path d="M0 478L180 485L360 496L540 487L720 483L900 492L900 601L720 601L540 601L360 601L180 601L0 601Z" fill="#1b314d"></path><path d="M0 512L180 520L360 534L540 516L720 518L900 522L900 601L720 601L540 601L360 601L180 601L0 601Z" fill="#112845"></path><path d="M0 551L180 551L360 546L540 555L720 546L900 561L900 601L720 601L540 601L360 601L180 601L0 601Z" fill="#05203d"></path></svg>