<svg id="visual" viewBox="0 0 900 600" width="900" height="600" xmlns="http://www.w3.org/2000/svg" xmlns:xlink="http://www.w3.org/1999/xlink" version="1.1"><rect x="0" y="0" width="900" height="600" fill="#ffffff"></rect><path d="M0 346L129 323L257 372L386 386L514 358L643 348L771 344L900 340L900 601L771 601L643 601L514 601L386 601L257 601L129 601L0 601Z" fill="#739fcd"></path><path d="M0 385L129 385L257 358L386 407L514 411L643 347L771 410L900 393L900 601L771 601L643 601L514 601L386 601L257 601L129 601L0 601Z" fill="#6992bf"></path><path d="M0 387L129 398L257 403L386 423L514 410L643 388L771 387L900 417L900 601L771 601L643 601L514 601L386 601L257 601L129 601L0 601Z" fill="#5f85b1"></path><path d="M0 427L129 396L257 418L386 402L514 436L643 428L771 430L900 444L900 601L771 601L643 601L514 601L386 601L257 601L129 601L0 601Z" fill="#5579a3"></path><path d="M0 412L129 419L257 453L386 423L514 459L643 433L771 412L900 421L900 601L771 601L643 601L514 601L386 601L257 601L129 601L0 601Z" fill="#4b6d96"></path><path d="M0 456L129 439L257 445L386 457L514 453L643 459L771 459L900 448L900 601L771 601L643 601L514 601L386 601L257 601L129 601L0 601Z" fill="#416189"></path><path d="M0 481L129 491L257 493L386 460L514 457L643 470L771 459L900 457L900 601L771 601L643 601L514 601L386 601L257 601L129 601L0 601Z" fill="#37557b"></path><path d="M0 501L129 490L257 489L386 498L514 506L643 479L771 497L900 498L900 601L771 601L643 601L514 601L386 601L257 601L129 601L0 601Z" fill="#2d4a6e"></path><path d="M0 521L129 525L257 524L386 512L514 519L643 504L771 505L900 501L900 601L771 601L643 601L514 601L386 601L257 601L129 601L0 601Z" fill="#243f62"></path><path d="M0 541L129 522L257 541L386 524L514 535L643 520L771 541L900 528L900 601L771 601L643 601L514 601L386 601L257 601L129 601L0 601Z" fill="#1a3455"></path><path d="M0 550L129 549L257 545L386 553L514 553L643 558L771 560L900 553L900 601L771 601L643 601L514 601L386 601L257 601L129 601L0 601Z" fill="#102a49"></path><path d="M0 574L129 579L257 579L386 568L514 573L643 573L771 575L900 573L900 601L771 601L643 601L514 601L386 601L257 601L129 601L0 601Z" fill="#05203d"></path></svg>