<svg id="visual" viewBox="0 0 900 600" width="900" height="600" xmlns="http://www.w3.org/2000/svg" xmlns:xlink="http://www.w3.org/1999/xlink" version="1.1"><rect x="0" y="0" width="900" height="600" fill="#ffffff"></rect><path d="M0 360L113 341L225 359L338 365L450 352L563 347L675 369L788 381L900 363L900 601L788 601L675 601L563 601L450 601L338 601L225 601L113 601L0 601Z" fill="#05203d"></path><path d="M0 357L113 396L225 376L338 382L450 392L563 383L675 361L788 355L900 360L900 601L788 601L675 601L563 601L450 601L338 601L225 601L113 601L0 601Z" fill="#102a49"></path><path d="M0 387L113 416L225 390L338 388L450 402L563 393L675 404L788 387L900 399L900 601L788 601L675 601L563 601L450 601L338 601L225 601L113 601L0 601Z" fill="#1a3455"></path><path d="M0 403L113 430L225 422L338 401L450 416L563 426L675 405L788 408L900 434L900 601L788 601L675 601L563 601L450 601L338 601L225 601L113 601L0 601Z" fill="#243f62"></path><path d="M0 451L113 421L225 425L338 425L450 442L563 429L675 446L788 433L900 435L900 601L788 601L675 601L563 601L450 601L338 601L225 601L113 601L0 601Z" fill="#2d4a6e"></path><path d="M0 460L113 456L225 455L338 466L450 451L563 451L675 463L788 465L900 449L900 601L788 601L675 601L563 601L450 601L338 601L225 601L113 601L0 601Z" fill="#37557b"></path><path d="M0 485L113 472L225 467L338 466L450 488L563 479L675 472L788 487L900 482L900 601L788 601L675 601L563 601L450 601L338 601L225 601L113 601L0 601Z" fill="#416189"></path><path d="M0 502L113 502L225 505L338 485L450 495L563 485L675 488L788 485L900 491L900 601L788 601L675 601L563 601L450 601L338 601L225 601L113 601L0 601Z" fill="#4b6d96"></path><path d="M0 517L113 521L225 516L338 504L450 505L563 521L675 506L788 507L900 520L900 601L788 601L675 601L563 601L450 601L338 601L225 601L113 601L0 601Z" fill="#5579a3"></path><path d="M0 536L113 528L225 532L338 534L450 527L563 530L675 527L788 539L900 536L900 601L788 601L675 601L563 601L450 601L338 601L225 601L113 601L0 601Z" fill="#5f85b1"></path><path d="M0 550L113 554L225 556L338 550L450 557L563 550L675 558L788 547L900 546L900 601L788 601L675 601L563 601L450 601L338 601L225 601L113 601L0 601Z" fill="#6992bf"></path><path d="M0 570L113 566L225 572L338 568L450 572L563 566L675 573L788 569L900 575L900 601L788 601L675 601L563 601L450 601L338 601L225 601L113 601L0 601Z" fill="#739fcd"></path></svg>