<svg id="visual" viewBox="0 0 900 600" width="900" height="600" xmlns="http://www.w3.org/2000/svg" xmlns:xlink="http://www.w3.org/1999/xlink" version="1.1"><rect x="0" y="0" width="900" height="600" fill="#f3f4ff"></rect><path d="M0 308L180 304L360 321L540 313L720 354L900 352L900 601L720 601L540 601L360 601L180 601L0 601Z" fill="#718ca9"></path><path d="M0 367L180 386L360 333L540 360L720 366L900 328L900 601L720 601L540 601L360 601L180 601L0 601Z" fill="#67819f"></path><path d="M0 366L180 395L360 404L540 399L720 368L900 394L900 601L720 601L540 601L360 601L180 601L0 601Z" fill="#5d7794"></path><path d="M0 416L180 398L360 382L540 394L720 405L900 387L900 601L720 601L540 601L360 601L180 601L0 601Z" fill="#536c8a"></path><path d="M0 437L180 433L360 409L540 399L720 442L900 420L900 601L720 601L540 601L360 601L180 601L0 601Z" fill="#496280"></path><path d="M0 444L180 429L360 434L540 421L720 437L900 455L900 601L720 601L540 601L360 601L180 601L0 601Z" fill="#405876"></path><path d="M0 455L180 446L360 452L540 448L720 444L900 454L900 601L720 601L540 601L360 601L180 601L0 601Z" fill="#364e6c"></path><path d="M0 497L180 470L360 497L540 484L720 490L900 493L900 601L720 601L540 601L360 601L180 601L0 601Z" fill="#2d4462"></path><path d="M0 495L180 494L360 517L540 507L720 510L900 502L900 601L720 601L540 601L360 601L180 601L0 601Z" fill="#243b59"></path><path d="M0 514L180 519L360 527L540 521L720 518L900 524L900 601L720 601L540 601L360 601L180 601L0 601Z" fill="#1a324f"></path><path d="M0 538L180 543L360 554L540 541L720 542L900 545L900 601L720 601L540 601L360 601L180 601L0 601Z" fill="#102946"></path><path d="M0 565L180 566L360 562L540 568L720 562L900 573L900 601L720 601L540 601L360 601L180 601L0 601Z" fill="#05203d"></path></svg>